%TF.GenerationSoftware,KiCad,Pcbnew,8.0.2*%
%TF.CreationDate,2025-06-01T21:04:34-04:00*%
%TF.ProjectId,casino-chip,63617369-6e6f-42d6-9368-69702e6b6963,0*%
%TF.SameCoordinates,Original*%
%TF.FileFunction,AssemblyDrawing,Top*%
%FSLAX46Y46*%
G04 Gerber Fmt 4.6, Leading zero omitted, Abs format (unit mm)*
G04 Created by KiCad (PCBNEW 8.0.2) date 2025-06-01 21:04:34*
%MOMM*%
%LPD*%
G01*
G04 APERTURE LIST*
%ADD10C,0.150000*%
%ADD11C,0.100000*%
G04 APERTURE END LIST*
D10*
X133638152Y-104142856D02*
X134304819Y-104142856D01*
X133257200Y-104380951D02*
X133971485Y-104619046D01*
X133971485Y-104619046D02*
X133971485Y-103999999D01*
X133304819Y-103714284D02*
X133304819Y-103095237D01*
X133304819Y-103095237D02*
X133685771Y-103428570D01*
X133685771Y-103428570D02*
X133685771Y-103285713D01*
X133685771Y-103285713D02*
X133733390Y-103190475D01*
X133733390Y-103190475D02*
X133781009Y-103142856D01*
X133781009Y-103142856D02*
X133876247Y-103095237D01*
X133876247Y-103095237D02*
X134114342Y-103095237D01*
X134114342Y-103095237D02*
X134209580Y-103142856D01*
X134209580Y-103142856D02*
X134257200Y-103190475D01*
X134257200Y-103190475D02*
X134304819Y-103285713D01*
X134304819Y-103285713D02*
X134304819Y-103571427D01*
X134304819Y-103571427D02*
X134257200Y-103666665D01*
X134257200Y-103666665D02*
X134209580Y-103714284D01*
X134209580Y-102666665D02*
X134257200Y-102619046D01*
X134257200Y-102619046D02*
X134304819Y-102666665D01*
X134304819Y-102666665D02*
X134257200Y-102714284D01*
X134257200Y-102714284D02*
X134209580Y-102666665D01*
X134209580Y-102666665D02*
X134304819Y-102666665D01*
X133304819Y-101999999D02*
X133304819Y-101904761D01*
X133304819Y-101904761D02*
X133352438Y-101809523D01*
X133352438Y-101809523D02*
X133400057Y-101761904D01*
X133400057Y-101761904D02*
X133495295Y-101714285D01*
X133495295Y-101714285D02*
X133685771Y-101666666D01*
X133685771Y-101666666D02*
X133923866Y-101666666D01*
X133923866Y-101666666D02*
X134114342Y-101714285D01*
X134114342Y-101714285D02*
X134209580Y-101761904D01*
X134209580Y-101761904D02*
X134257200Y-101809523D01*
X134257200Y-101809523D02*
X134304819Y-101904761D01*
X134304819Y-101904761D02*
X134304819Y-101999999D01*
X134304819Y-101999999D02*
X134257200Y-102095237D01*
X134257200Y-102095237D02*
X134209580Y-102142856D01*
X134209580Y-102142856D02*
X134114342Y-102190475D01*
X134114342Y-102190475D02*
X133923866Y-102238094D01*
X133923866Y-102238094D02*
X133685771Y-102238094D01*
X133685771Y-102238094D02*
X133495295Y-102190475D01*
X133495295Y-102190475D02*
X133400057Y-102142856D01*
X133400057Y-102142856D02*
X133352438Y-102095237D01*
X133352438Y-102095237D02*
X133304819Y-101999999D01*
X133304819Y-101047618D02*
X133304819Y-100952380D01*
X133304819Y-100952380D02*
X133352438Y-100857142D01*
X133352438Y-100857142D02*
X133400057Y-100809523D01*
X133400057Y-100809523D02*
X133495295Y-100761904D01*
X133495295Y-100761904D02*
X133685771Y-100714285D01*
X133685771Y-100714285D02*
X133923866Y-100714285D01*
X133923866Y-100714285D02*
X134114342Y-100761904D01*
X134114342Y-100761904D02*
X134209580Y-100809523D01*
X134209580Y-100809523D02*
X134257200Y-100857142D01*
X134257200Y-100857142D02*
X134304819Y-100952380D01*
X134304819Y-100952380D02*
X134304819Y-101047618D01*
X134304819Y-101047618D02*
X134257200Y-101142856D01*
X134257200Y-101142856D02*
X134209580Y-101190475D01*
X134209580Y-101190475D02*
X134114342Y-101238094D01*
X134114342Y-101238094D02*
X133923866Y-101285713D01*
X133923866Y-101285713D02*
X133685771Y-101285713D01*
X133685771Y-101285713D02*
X133495295Y-101238094D01*
X133495295Y-101238094D02*
X133400057Y-101190475D01*
X133400057Y-101190475D02*
X133352438Y-101142856D01*
X133352438Y-101142856D02*
X133304819Y-101047618D01*
X133304819Y-100095237D02*
X133304819Y-99999999D01*
X133304819Y-99999999D02*
X133352438Y-99904761D01*
X133352438Y-99904761D02*
X133400057Y-99857142D01*
X133400057Y-99857142D02*
X133495295Y-99809523D01*
X133495295Y-99809523D02*
X133685771Y-99761904D01*
X133685771Y-99761904D02*
X133923866Y-99761904D01*
X133923866Y-99761904D02*
X134114342Y-99809523D01*
X134114342Y-99809523D02*
X134209580Y-99857142D01*
X134209580Y-99857142D02*
X134257200Y-99904761D01*
X134257200Y-99904761D02*
X134304819Y-99999999D01*
X134304819Y-99999999D02*
X134304819Y-100095237D01*
X134304819Y-100095237D02*
X134257200Y-100190475D01*
X134257200Y-100190475D02*
X134209580Y-100238094D01*
X134209580Y-100238094D02*
X134114342Y-100285713D01*
X134114342Y-100285713D02*
X133923866Y-100333332D01*
X133923866Y-100333332D02*
X133685771Y-100333332D01*
X133685771Y-100333332D02*
X133495295Y-100285713D01*
X133495295Y-100285713D02*
X133400057Y-100238094D01*
X133400057Y-100238094D02*
X133352438Y-100190475D01*
X133352438Y-100190475D02*
X133304819Y-100095237D01*
X133304819Y-99142856D02*
X133304819Y-99047618D01*
X133304819Y-99047618D02*
X133352438Y-98952380D01*
X133352438Y-98952380D02*
X133400057Y-98904761D01*
X133400057Y-98904761D02*
X133495295Y-98857142D01*
X133495295Y-98857142D02*
X133685771Y-98809523D01*
X133685771Y-98809523D02*
X133923866Y-98809523D01*
X133923866Y-98809523D02*
X134114342Y-98857142D01*
X134114342Y-98857142D02*
X134209580Y-98904761D01*
X134209580Y-98904761D02*
X134257200Y-98952380D01*
X134257200Y-98952380D02*
X134304819Y-99047618D01*
X134304819Y-99047618D02*
X134304819Y-99142856D01*
X134304819Y-99142856D02*
X134257200Y-99238094D01*
X134257200Y-99238094D02*
X134209580Y-99285713D01*
X134209580Y-99285713D02*
X134114342Y-99333332D01*
X134114342Y-99333332D02*
X133923866Y-99380951D01*
X133923866Y-99380951D02*
X133685771Y-99380951D01*
X133685771Y-99380951D02*
X133495295Y-99333332D01*
X133495295Y-99333332D02*
X133400057Y-99285713D01*
X133400057Y-99285713D02*
X133352438Y-99238094D01*
X133352438Y-99238094D02*
X133304819Y-99142856D01*
X134304819Y-97619046D02*
X133638152Y-97619046D01*
X133733390Y-97619046D02*
X133685771Y-97571427D01*
X133685771Y-97571427D02*
X133638152Y-97476189D01*
X133638152Y-97476189D02*
X133638152Y-97333332D01*
X133638152Y-97333332D02*
X133685771Y-97238094D01*
X133685771Y-97238094D02*
X133781009Y-97190475D01*
X133781009Y-97190475D02*
X134304819Y-97190475D01*
X133781009Y-97190475D02*
X133685771Y-97142856D01*
X133685771Y-97142856D02*
X133638152Y-97047618D01*
X133638152Y-97047618D02*
X133638152Y-96904761D01*
X133638152Y-96904761D02*
X133685771Y-96809522D01*
X133685771Y-96809522D02*
X133781009Y-96761903D01*
X133781009Y-96761903D02*
X134304819Y-96761903D01*
X134304819Y-96285713D02*
X133638152Y-96285713D01*
X133733390Y-96285713D02*
X133685771Y-96238094D01*
X133685771Y-96238094D02*
X133638152Y-96142856D01*
X133638152Y-96142856D02*
X133638152Y-95999999D01*
X133638152Y-95999999D02*
X133685771Y-95904761D01*
X133685771Y-95904761D02*
X133781009Y-95857142D01*
X133781009Y-95857142D02*
X134304819Y-95857142D01*
X133781009Y-95857142D02*
X133685771Y-95809523D01*
X133685771Y-95809523D02*
X133638152Y-95714285D01*
X133638152Y-95714285D02*
X133638152Y-95571428D01*
X133638152Y-95571428D02*
X133685771Y-95476189D01*
X133685771Y-95476189D02*
X133781009Y-95428570D01*
X133781009Y-95428570D02*
X134304819Y-95428570D01*
D11*
X100500000Y-121500000D02*
X135586420Y-121500000D01*
X135586420Y-78500000D02*
X100500000Y-78500000D01*
X135000000Y-121500000D02*
X135000000Y-78500000D01*
X135000000Y-121500000D02*
X135000000Y-78500000D01*
X135000000Y-121500000D02*
X134413579Y-120373496D01*
X135000000Y-121500000D02*
X135586421Y-120373496D01*
X135000000Y-78500000D02*
X135586421Y-79626504D01*
X135000000Y-78500000D02*
X134413579Y-79626504D01*
D10*
X96428571Y-74304819D02*
X95857143Y-74304819D01*
X96142857Y-74304819D02*
X96142857Y-73304819D01*
X96142857Y-73304819D02*
X96047619Y-73447676D01*
X96047619Y-73447676D02*
X95952381Y-73542914D01*
X95952381Y-73542914D02*
X95857143Y-73590533D01*
X96857143Y-74209580D02*
X96904762Y-74257200D01*
X96904762Y-74257200D02*
X96857143Y-74304819D01*
X96857143Y-74304819D02*
X96809524Y-74257200D01*
X96809524Y-74257200D02*
X96857143Y-74209580D01*
X96857143Y-74209580D02*
X96857143Y-74304819D01*
X97523809Y-73304819D02*
X97619047Y-73304819D01*
X97619047Y-73304819D02*
X97714285Y-73352438D01*
X97714285Y-73352438D02*
X97761904Y-73400057D01*
X97761904Y-73400057D02*
X97809523Y-73495295D01*
X97809523Y-73495295D02*
X97857142Y-73685771D01*
X97857142Y-73685771D02*
X97857142Y-73923866D01*
X97857142Y-73923866D02*
X97809523Y-74114342D01*
X97809523Y-74114342D02*
X97761904Y-74209580D01*
X97761904Y-74209580D02*
X97714285Y-74257200D01*
X97714285Y-74257200D02*
X97619047Y-74304819D01*
X97619047Y-74304819D02*
X97523809Y-74304819D01*
X97523809Y-74304819D02*
X97428571Y-74257200D01*
X97428571Y-74257200D02*
X97380952Y-74209580D01*
X97380952Y-74209580D02*
X97333333Y-74114342D01*
X97333333Y-74114342D02*
X97285714Y-73923866D01*
X97285714Y-73923866D02*
X97285714Y-73685771D01*
X97285714Y-73685771D02*
X97333333Y-73495295D01*
X97333333Y-73495295D02*
X97380952Y-73400057D01*
X97380952Y-73400057D02*
X97428571Y-73352438D01*
X97428571Y-73352438D02*
X97523809Y-73304819D01*
X98476190Y-73304819D02*
X98571428Y-73304819D01*
X98571428Y-73304819D02*
X98666666Y-73352438D01*
X98666666Y-73352438D02*
X98714285Y-73400057D01*
X98714285Y-73400057D02*
X98761904Y-73495295D01*
X98761904Y-73495295D02*
X98809523Y-73685771D01*
X98809523Y-73685771D02*
X98809523Y-73923866D01*
X98809523Y-73923866D02*
X98761904Y-74114342D01*
X98761904Y-74114342D02*
X98714285Y-74209580D01*
X98714285Y-74209580D02*
X98666666Y-74257200D01*
X98666666Y-74257200D02*
X98571428Y-74304819D01*
X98571428Y-74304819D02*
X98476190Y-74304819D01*
X98476190Y-74304819D02*
X98380952Y-74257200D01*
X98380952Y-74257200D02*
X98333333Y-74209580D01*
X98333333Y-74209580D02*
X98285714Y-74114342D01*
X98285714Y-74114342D02*
X98238095Y-73923866D01*
X98238095Y-73923866D02*
X98238095Y-73685771D01*
X98238095Y-73685771D02*
X98285714Y-73495295D01*
X98285714Y-73495295D02*
X98333333Y-73400057D01*
X98333333Y-73400057D02*
X98380952Y-73352438D01*
X98380952Y-73352438D02*
X98476190Y-73304819D01*
X99428571Y-73304819D02*
X99523809Y-73304819D01*
X99523809Y-73304819D02*
X99619047Y-73352438D01*
X99619047Y-73352438D02*
X99666666Y-73400057D01*
X99666666Y-73400057D02*
X99714285Y-73495295D01*
X99714285Y-73495295D02*
X99761904Y-73685771D01*
X99761904Y-73685771D02*
X99761904Y-73923866D01*
X99761904Y-73923866D02*
X99714285Y-74114342D01*
X99714285Y-74114342D02*
X99666666Y-74209580D01*
X99666666Y-74209580D02*
X99619047Y-74257200D01*
X99619047Y-74257200D02*
X99523809Y-74304819D01*
X99523809Y-74304819D02*
X99428571Y-74304819D01*
X99428571Y-74304819D02*
X99333333Y-74257200D01*
X99333333Y-74257200D02*
X99285714Y-74209580D01*
X99285714Y-74209580D02*
X99238095Y-74114342D01*
X99238095Y-74114342D02*
X99190476Y-73923866D01*
X99190476Y-73923866D02*
X99190476Y-73685771D01*
X99190476Y-73685771D02*
X99238095Y-73495295D01*
X99238095Y-73495295D02*
X99285714Y-73400057D01*
X99285714Y-73400057D02*
X99333333Y-73352438D01*
X99333333Y-73352438D02*
X99428571Y-73304819D01*
X100380952Y-73304819D02*
X100476190Y-73304819D01*
X100476190Y-73304819D02*
X100571428Y-73352438D01*
X100571428Y-73352438D02*
X100619047Y-73400057D01*
X100619047Y-73400057D02*
X100666666Y-73495295D01*
X100666666Y-73495295D02*
X100714285Y-73685771D01*
X100714285Y-73685771D02*
X100714285Y-73923866D01*
X100714285Y-73923866D02*
X100666666Y-74114342D01*
X100666666Y-74114342D02*
X100619047Y-74209580D01*
X100619047Y-74209580D02*
X100571428Y-74257200D01*
X100571428Y-74257200D02*
X100476190Y-74304819D01*
X100476190Y-74304819D02*
X100380952Y-74304819D01*
X100380952Y-74304819D02*
X100285714Y-74257200D01*
X100285714Y-74257200D02*
X100238095Y-74209580D01*
X100238095Y-74209580D02*
X100190476Y-74114342D01*
X100190476Y-74114342D02*
X100142857Y-73923866D01*
X100142857Y-73923866D02*
X100142857Y-73685771D01*
X100142857Y-73685771D02*
X100190476Y-73495295D01*
X100190476Y-73495295D02*
X100238095Y-73400057D01*
X100238095Y-73400057D02*
X100285714Y-73352438D01*
X100285714Y-73352438D02*
X100380952Y-73304819D01*
X101904762Y-74304819D02*
X101904762Y-73638152D01*
X101904762Y-73733390D02*
X101952381Y-73685771D01*
X101952381Y-73685771D02*
X102047619Y-73638152D01*
X102047619Y-73638152D02*
X102190476Y-73638152D01*
X102190476Y-73638152D02*
X102285714Y-73685771D01*
X102285714Y-73685771D02*
X102333333Y-73781009D01*
X102333333Y-73781009D02*
X102333333Y-74304819D01*
X102333333Y-73781009D02*
X102380952Y-73685771D01*
X102380952Y-73685771D02*
X102476190Y-73638152D01*
X102476190Y-73638152D02*
X102619047Y-73638152D01*
X102619047Y-73638152D02*
X102714286Y-73685771D01*
X102714286Y-73685771D02*
X102761905Y-73781009D01*
X102761905Y-73781009D02*
X102761905Y-74304819D01*
X103238095Y-74304819D02*
X103238095Y-73638152D01*
X103238095Y-73733390D02*
X103285714Y-73685771D01*
X103285714Y-73685771D02*
X103380952Y-73638152D01*
X103380952Y-73638152D02*
X103523809Y-73638152D01*
X103523809Y-73638152D02*
X103619047Y-73685771D01*
X103619047Y-73685771D02*
X103666666Y-73781009D01*
X103666666Y-73781009D02*
X103666666Y-74304819D01*
X103666666Y-73781009D02*
X103714285Y-73685771D01*
X103714285Y-73685771D02*
X103809523Y-73638152D01*
X103809523Y-73638152D02*
X103952380Y-73638152D01*
X103952380Y-73638152D02*
X104047619Y-73685771D01*
X104047619Y-73685771D02*
X104095238Y-73781009D01*
X104095238Y-73781009D02*
X104095238Y-74304819D01*
D11*
X99500000Y-79500000D02*
X99500000Y-74413580D01*
X100500000Y-74413580D02*
X100500000Y-79500000D01*
X99500000Y-75000000D02*
X100500000Y-75000000D01*
X99500000Y-75000000D02*
X100500000Y-75000000D01*
X99500000Y-75000000D02*
X100626504Y-74413579D01*
X99500000Y-75000000D02*
X100626504Y-75586421D01*
X100500000Y-75000000D02*
X99373496Y-75586421D01*
X100500000Y-75000000D02*
X99373496Y-74413579D01*
M02*
