%TF.GenerationSoftware,KiCad,Pcbnew,8.0.2*%
%TF.CreationDate,2025-06-01T21:04:34-04:00*%
%TF.ProjectId,casino-chip,63617369-6e6f-42d6-9368-69702e6b6963,0*%
%TF.SameCoordinates,Original*%
%TF.FileFunction,Copper,L2,Bot*%
%TF.FilePolarity,Positive*%
%FSLAX46Y46*%
G04 Gerber Fmt 4.6, Leading zero omitted, Abs format (unit mm)*
G04 Created by KiCad (PCBNEW 8.0.2) date 2025-06-01 21:04:34*
%MOMM*%
%LPD*%
G01*
G04 APERTURE LIST*
%TA.AperFunction,NonConductor*%
%ADD10C,0.200000*%
%TD*%
%TA.AperFunction,NonConductor*%
%ADD11C,0.600000*%
%TD*%
%TA.AperFunction,NonConductor*%
%ADD12C,0.325000*%
%TD*%
%TA.AperFunction,NonConductor*%
%ADD13C,0.599998*%
%TD*%
%TA.AperFunction,ViaPad*%
%ADD14C,1.500000*%
%TD*%
G04 APERTURE END LIST*
D10*
X115113612Y-115869521D02*
X109379548Y-119884556D01*
X106224878Y-115379220D01*
X111958942Y-111364185D01*
X115113612Y-115869521D01*
%TA.AperFunction,NonConductor*%
G36*
X115113612Y-115869521D02*
G01*
X109379548Y-119884556D01*
X106224878Y-115379220D01*
X111958942Y-111364185D01*
X115113612Y-115869521D01*
G37*
%TD.AperFunction*%
D11*
X82350002Y-92146209D02*
G75*
G02*
X81750002Y-92146209I-300000J0D01*
G01*
X81750002Y-92146209D02*
G75*
G02*
X82350002Y-92146209I300000J0D01*
G01*
X116211699Y-91473105D02*
G75*
G02*
X115611699Y-91473105I-300000J0D01*
G01*
X115611699Y-91473105D02*
G75*
G02*
X116211699Y-91473105I300000J0D01*
G01*
X98800000Y-117500000D02*
G75*
G02*
X98200000Y-117500000I-300000J0D01*
G01*
X98200000Y-117500000D02*
G75*
G02*
X98800000Y-117500000I300000J0D01*
G01*
X114200000Y-90800000D02*
G75*
G02*
X113600000Y-90800000I-300000J0D01*
G01*
X113600000Y-90800000D02*
G75*
G02*
X114200000Y-90800000I300000J0D01*
G01*
X84361699Y-91473105D02*
G75*
G02*
X83761699Y-91473105I-300000J0D01*
G01*
X83761699Y-91473105D02*
G75*
G02*
X84361699Y-91473105I300000J0D01*
G01*
D12*
X114000000Y-100000000D02*
X113546024Y-103536273D01*
X113159769Y-104777077D02*
X111526392Y-107946210D01*
X110739933Y-108980748D02*
X108123214Y-111402340D01*
X107030951Y-112106433D02*
X103744983Y-113489814D01*
X102478023Y-113778947D02*
X98917230Y-113958066D01*
X97627651Y-113797534D02*
X94219446Y-112750890D01*
X93062039Y-112159962D02*
X90215518Y-110013187D01*
X89329210Y-109062795D02*
X87386050Y-106073572D01*
X86877228Y-104877793D02*
X86070672Y-101404928D01*
X86000411Y-100107296D02*
X86427271Y-96567646D01*
X86804005Y-95323919D02*
X88413045Y-92142360D01*
X89191553Y-91101826D02*
X91789636Y-88660250D01*
X92876471Y-87947807D02*
X96151740Y-86539283D01*
X97416447Y-86240448D02*
X100975762Y-86034045D01*
X102266534Y-86184688D02*
X105682661Y-87205182D01*
X106844563Y-87787221D02*
X109707453Y-89912118D01*
X110601018Y-90855689D02*
X112567031Y-93829932D01*
X113085002Y-95021776D02*
X113918151Y-98488358D01*
X113998355Y-99785414D02*
X114000000Y-100000000D01*
D10*
X93748786Y-84564721D02*
X88014722Y-88579757D01*
X84860052Y-84074420D01*
X90594116Y-80059385D01*
X93748786Y-84564721D01*
%TA.AperFunction,NonConductor*%
G36*
X93748786Y-84564721D02*
G01*
X88014722Y-88579757D01*
X84860052Y-84074420D01*
X90594116Y-80059385D01*
X93748786Y-84564721D01*
G37*
%TD.AperFunction*%
D11*
X100300000Y-82000000D02*
G75*
G02*
X99700000Y-82000000I-300000J0D01*
G01*
X99700000Y-82000000D02*
G75*
G02*
X100300000Y-82000000I300000J0D01*
G01*
X115538593Y-93484803D02*
G75*
G02*
X114938593Y-93484803I-300000J0D01*
G01*
X114938593Y-93484803D02*
G75*
G02*
X115538593Y-93484803I300000J0D01*
G01*
D13*
X82437368Y-107777286D02*
G75*
G02*
X81837370Y-107777286I-299999J0D01*
G01*
X81837370Y-107777286D02*
G75*
G02*
X82437368Y-107777286I299999J0D01*
G01*
D10*
X78500000Y-96500000D02*
X84000000Y-96500000D01*
X84000000Y-103500000D01*
X78500000Y-103500000D01*
X78500000Y-96500000D01*
%TA.AperFunction,NonConductor*%
G36*
X78500000Y-96500000D02*
G01*
X84000000Y-96500000D01*
X84000000Y-103500000D01*
X78500000Y-103500000D01*
X78500000Y-96500000D01*
G37*
%TD.AperFunction*%
D11*
X118223396Y-92146209D02*
G75*
G02*
X117623396Y-92146209I-300000J0D01*
G01*
X117623396Y-92146209D02*
G75*
G02*
X118223396Y-92146209I300000J0D01*
G01*
D10*
X116000000Y-96500000D02*
X121500000Y-96500000D01*
X121500000Y-103500000D01*
X116000000Y-103500000D01*
X116000000Y-96500000D01*
%TA.AperFunction,NonConductor*%
G36*
X116000000Y-96500000D02*
G01*
X121500000Y-96500000D01*
X121500000Y-103500000D01*
X116000000Y-103500000D01*
X116000000Y-96500000D01*
G37*
%TD.AperFunction*%
D13*
X116791375Y-110422631D02*
G75*
G02*
X116191377Y-110422631I-299999J0D01*
G01*
X116191377Y-110422631D02*
G75*
G02*
X116791375Y-110422631I299999J0D01*
G01*
D11*
X116884803Y-89461406D02*
G75*
G02*
X116284803Y-89461406I-300000J0D01*
G01*
X116284803Y-89461406D02*
G75*
G02*
X116884803Y-89461406I300000J0D01*
G01*
X101800000Y-116000000D02*
G75*
G02*
X101200000Y-116000000I-300000J0D01*
G01*
X101200000Y-116000000D02*
G75*
G02*
X101800000Y-116000000I300000J0D01*
G01*
X101800000Y-117500000D02*
G75*
G02*
X101200000Y-117500000I-300000J0D01*
G01*
X101200000Y-117500000D02*
G75*
G02*
X101800000Y-117500000I300000J0D01*
G01*
D13*
X115568663Y-106360000D02*
G75*
G02*
X114968665Y-106360000I-299999J0D01*
G01*
X114968665Y-106360000D02*
G75*
G02*
X115568663Y-106360000I299999J0D01*
G01*
D11*
X98800000Y-116000000D02*
G75*
G02*
X98200000Y-116000000I-300000J0D01*
G01*
X98200000Y-116000000D02*
G75*
G02*
X98800000Y-116000000I300000J0D01*
G01*
D13*
X86499999Y-109000000D02*
G75*
G02*
X85900001Y-109000000I-299999J0D01*
G01*
X85900001Y-109000000D02*
G75*
G02*
X86499999Y-109000000I299999J0D01*
G01*
D10*
X93722764Y-115363440D02*
X90568094Y-119868776D01*
X84834030Y-115853741D01*
X87988700Y-111348405D01*
X93722764Y-115363440D01*
%TA.AperFunction,NonConductor*%
G36*
X93722764Y-115363440D02*
G01*
X90568094Y-119868776D01*
X84834030Y-115853741D01*
X87988700Y-111348405D01*
X93722764Y-115363440D01*
G37*
%TD.AperFunction*%
D11*
X98800000Y-119000000D02*
G75*
G02*
X98200000Y-119000000I-300000J0D01*
G01*
X98200000Y-119000000D02*
G75*
G02*
X98800000Y-119000000I300000J0D01*
G01*
X101800000Y-119000000D02*
G75*
G02*
X101200000Y-119000000I-300000J0D01*
G01*
X101200000Y-119000000D02*
G75*
G02*
X101800000Y-119000000I300000J0D01*
G01*
X86373398Y-90800000D02*
G75*
G02*
X85773398Y-90800000I-300000J0D01*
G01*
X85773398Y-90800000D02*
G75*
G02*
X86373398Y-90800000I300000J0D01*
G01*
D13*
X114148703Y-109002673D02*
G75*
G02*
X113548705Y-109002673I-299999J0D01*
G01*
X113548705Y-109002673D02*
G75*
G02*
X114148703Y-109002673I299999J0D01*
G01*
D10*
X114985553Y-84027755D02*
X111830882Y-88533091D01*
X106096818Y-84518056D01*
X109251488Y-80012720D01*
X114985553Y-84027755D01*
%TA.AperFunction,NonConductor*%
G36*
X114985553Y-84027755D02*
G01*
X111830882Y-88533091D01*
X106096818Y-84518056D01*
X109251488Y-80012720D01*
X114985553Y-84027755D01*
G37*
%TD.AperFunction*%
D13*
X118211334Y-107779959D02*
G75*
G02*
X117611336Y-107779959I-299999J0D01*
G01*
X117611336Y-107779959D02*
G75*
G02*
X118211334Y-107779959I299999J0D01*
G01*
D14*
%TO.N,*%
X100000000Y-80000000D03*
%TD*%
M02*
